<?xml version="1.0" encoding="UTF-8" standalone="no"?>
<!-- Created with Inkscape (http://www.inkscape.org/) -->

<svg
   width="256"
   height="178"
   viewBox="0 0 256 178"
   version="1.1"
   id="svg1"
   inkscape:version="1.3.2 (091e20e, 2023-11-25, custom)"
   sodipodi:docname="pointitout-new-logo.svg"
   xml:space="preserve"
   inkscape:export-filename="pointitout-logo.png"
   inkscape:export-xdpi="201.44263"
   inkscape:export-ydpi="201.44263"
   xmlns:inkscape="http://www.inkscape.org/namespaces/inkscape"
   xmlns:sodipodi="http://sodipodi.sourceforge.net/DTD/sodipodi-0.dtd"
   xmlns="http://www.w3.org/2000/svg"
   xmlns:svg="http://www.w3.org/2000/svg"><sodipodi:namedview
     id="namedview1"
     pagecolor="#ffffff"
     bordercolor="#000000"
     borderopacity="0.25"
     inkscape:showpageshadow="2"
     inkscape:pageopacity="0.0"
     inkscape:pagecheckerboard="true"
     inkscape:deskcolor="#d1d1d1"
     inkscape:document-units="px"
     inkscape:zoom="0.70710678"
     inkscape:cx="275.06454"
     inkscape:cy="214.25335"
     inkscape:window-width="1920"
     inkscape:window-height="1017"
     inkscape:window-x="-8"
     inkscape:window-y="-8"
     inkscape:window-maximized="1"
     inkscape:current-layer="layer1"
     inkscape:export-bgcolor="#6a3353ff" /><defs
     id="defs1" /><g
     inkscape:label="Capa 1"
     inkscape:groupmode="layer"
     id="layer1"
     transform="translate(-8.0584933,-106.14786)"><g
       id="g11"
       transform="translate(8.9165973,13.607715)"><ellipse
         style="fill:#d55877;fill-opacity:1;stroke:#612534;stroke-width:8.00014;stroke-linecap:butt;stroke-linejoin:round;stroke-dasharray:none;stroke-opacity:1"
         id="path7"
         cx="238.39603"
         cy="-57.395599"
         rx="85.882309"
         ry="83.215317"
         inkscape:label="point"
         transform="matrix(0.4829855,0.87562835,-0.87999013,0.47499197,0,0)" /><path
         fill-rule="evenodd"
         clip-rule="evenodd"
         fill="#ffffff"
         d="m 111.00232,245.76885 c -0.0796,0.003 -0.16267,0.006 -0.24881,0.0108 -5.57325,0.22143 -11.148079,0.40217 -16.718597,0.68191 5.570062,-0.28633 11.145337,-0.46649 16.718597,-0.68191 0.0863,-0.003 0.16933,-0.008 0.24881,-0.0108 l 6.5321,-0.26636 c -0.29346,3.16623 -2.26339,6.14669 -3.83379,8.91475 -4.17254,7.35467 -11.31445,7.18943 -17.447387,7.73293 -5.964759,0.0157 -26.107265,8.94245 -60.340309,-1.2241 -10.943063,-3.24985 -14.53853,6.53964 -27.3175694,2.69875 -6.494125,-30.78095 -6.4071204,-47.44408 -3.839785,-62.57817 34.1462854,-8.43258 75.1251384,-31.12284 81.9329694,-50.97049 16.279411,-4.19706 23.834751,9.59638 11.323433,28.09532 l 58.381708,-2.89244 c 21.20634,-0.17691 21.54823,22.7875 1.02763,24.07231 -15.96832,-0.29946 -31.93587,-0.63715 -47.90346,-0.97253 l 23.4601,0.8742 c 0.17176,4.02277 -0.25442,0.62686 0.047,7.69597 0.45945,10.76185 -8.52972,13.72645 -13.18443,14.5396 -5.63843,0.69662 -11.3714,0.65827 -17.0489,0.88924 l 23.30051,-0.95041 c 1.03239,12.00074 0.16355,21.59828 -12.9775,24.06021 -0.81182,0.14337 -1.51606,0.2369 -2.11269,0.28069 z"
         id="path1-4-8"
         style="fill:#5896d5;fill-opacity:1;stroke:#16375a;stroke-width:8;stroke-linecap:butt;stroke-linejoin:round;stroke-dasharray:none;stroke-opacity:1"
         sodipodi:nodetypes="ccccccscsccccccccscccccc"
         inkscape:label="hand" /></g></g></svg>
